<svg xmlns="http://www.w3.org/2000/svg" id="Layer_1" viewBox="0 0 301.95 224.74">
  <defs>
    <clipPath id="clip-path">
      <path d="M289.81,165.72c-6.74,25.58-25.6,19.35-49.64,31.53C215.07,210,179.66,215.31,136,214,57.26,211.54-5.62,179.07.4,94.67,6.33,11.48,79,8.12,156.78,20.61S337.5-15.1,289.81,165.72Z" style="fill:none"/>
    </clipPath>
  </defs>
  <path d="M282.11,139.9C275.34,193.56,221.45,216.6,136,214,57.26,211.54-5.62,179.07.4,94.67,6.33,11.48,79,8.12,156.78,20.61S293.6,48.9,282.11,139.9Z" style="fill:#eaedfc"/>
  <rect width="60.3" height="1.7" x="35.5" y="101.31" style="fill:#000100"/>
  <rect width="40.71" height="1.7" x="77.29" y="95.52" style="fill:#000100"/>
  <rect width="30.7" height="1.7" x="35.5" y="95.52" style="fill:#000100"/>
  <rect width="22.82" height="1.7" x="95.18" y="118.75" style="fill:#000100"/>
  <rect width="48.58" height="1.7" x="35.5" y="118.75" style="fill:#000100"/>
  <rect width="45.02" height="1.7" x="72.98" y="112.96" style="fill:#000100"/>
  <rect width="26.38" height="1.7" x="35.5" y="112.96" style="fill:#000100"/>
  <polygon points="22.99 104.57 17.52 99.11 19.93 96.7 22.99 99.75 29.83 92.91 32.24 95.31 22.99 104.57" style="fill:#6ec477"/>
  <polygon points="22.99 122.01 17.52 116.55 19.93 114.14 22.99 117.2 29.83 110.35 32.24 112.76 22.99 122.01" style="fill:#6ec477"/>
  <rect width="22.82" height="1.7" x="95.18" y="137.01" style="fill:#000100"/>
  <rect width="48.58" height="1.7" x="35.5" y="137.01" style="fill:#000100"/>
  <rect width="45.02" height="1.7" x="72.98" y="131.21" style="fill:#000100"/>
  <rect width="26.38" height="1.7" x="35.5" y="131.21" style="fill:#000100"/>
  <polygon points="22.99 140.27 17.52 134.81 19.93 132.4 22.99 135.45 29.83 128.6 32.24 131.01 22.99 140.27" style="fill:#6ec477"/>
  <rect width="65.57" height="57.86" x="52.57" y="131.14" style="fill:#fcc561"/>
  <rect width="57.85" height="38.57" x="56.42" y="140.78" style="fill:#fffffd"/>
  <rect width="5.24" height="4.84" x="82.73" y="146.57" rx="1.2" style="fill:#5c68d4"/>
  <rect width="5.24" height="4.84" x="75.25" y="146.57" rx="1.2" style="fill:#5c68d4"/>
  <rect width="5.24" height="4.84" x="82.73" y="153.95" rx="1.2" style="fill:#5c68d4"/>
  <path d="M94.25,151.41H91.41a1.19,1.19,0,0,1-1.2-1.19v-2.45a1.2,1.2,0,0,1,1.2-1.2h2.84a1.19,1.19,0,0,1,1.2,1.2v2.45A1.19,1.19,0,0,1,94.25,151.41Z" style="fill:#5c68d4"/>
  <path d="M64.32,158.8H61.48a1.2,1.2,0,0,1-1.2-1.2v-2.45a1.19,1.19,0,0,1,1.2-1.19h2.84a1.19,1.19,0,0,1,1.2,1.19v2.45A1.2,1.2,0,0,1,64.32,158.8Z" style="fill:#5c68d4"/>
  <path d="M71.81,158.8H69a1.2,1.2,0,0,1-1.2-1.2v-2.45A1.19,1.19,0,0,1,69,154h2.85A1.19,1.19,0,0,1,73,155.15v2.45A1.19,1.19,0,0,1,71.81,158.8Z" style="fill:#5c68d4"/>
  <path d="M76.44,154h2.85a1.2,1.2,0,0,1,1.2,1.2v2.45a1.19,1.19,0,0,1-1.19,1.19H76.45a1.2,1.2,0,0,1-1.2-1.2v-2.45A1.19,1.19,0,0,1,76.44,154Z" style="fill:#5c68d4"/>
  <path d="M94.25,158.8H91.41a1.2,1.2,0,0,1-1.2-1.2v-2.45a1.19,1.19,0,0,1,1.2-1.19h2.84a1.19,1.19,0,0,1,1.2,1.19v2.45A1.2,1.2,0,0,1,94.25,158.8Z" style="fill:#5c68d4"/>
  <path d="M94.25,166.18H91.41a1.19,1.19,0,0,1-1.2-1.19v-2.45a1.2,1.2,0,0,1,1.2-1.2h2.84a1.2,1.2,0,0,1,1.2,1.2V165A1.19,1.19,0,0,1,94.25,166.18Z" style="fill:#5c68d4"/>
  <path d="M64.32,166.18H61.48a1.19,1.19,0,0,1-1.2-1.19v-2.45a1.2,1.2,0,0,1,1.2-1.2h2.84a1.2,1.2,0,0,1,1.2,1.2V165A1.19,1.19,0,0,1,64.32,166.18Z" style="fill:#5c68d4"/>
  <path d="M71.81,166.18H69a1.19,1.19,0,0,1-1.2-1.19v-2.45a1.2,1.2,0,0,1,1.2-1.2h2.85a1.19,1.19,0,0,1,1.19,1.2V165A1.19,1.19,0,0,1,71.81,166.18Z" style="fill:#5c68d4"/>
  <path d="M71.81,173.57H69a1.2,1.2,0,0,1-1.2-1.19v-2.46a1.19,1.19,0,0,1,1.2-1.19h2.85A1.19,1.19,0,0,1,73,169.92v2.46A1.19,1.19,0,0,1,71.81,173.57Z" style="fill:#5c68d4"/>
  <path d="M76.44,161.34h2.85a1.2,1.2,0,0,1,1.2,1.2V165a1.2,1.2,0,0,1-1.2,1.2H76.45a1.2,1.2,0,0,1-1.2-1.2v-2.45A1.19,1.19,0,0,1,76.44,161.34Z" style="fill:#5c68d4"/>
  <path d="M83.92,161.34h2.85a1.2,1.2,0,0,1,1.2,1.2V165a1.2,1.2,0,0,1-1.2,1.2H83.93a1.2,1.2,0,0,1-1.2-1.2v-2.45A1.19,1.19,0,0,1,83.92,161.34Z" style="fill:#5c68d4"/>
  <rect width="5.24" height="4.84" x="60.28" y="168.73" rx="1.2" style="fill:#5c68d4"/>
  <rect width="5.24" height="4.84" x="75.25" y="168.73" rx="1.2" style="fill:#5c68d4"/>
  <rect width="5.24" height="4.84" x="82.73" y="168.73" rx="1.2" style="fill:#5c68d4"/>
  <path d="M109.22,151.41h-2.84a1.19,1.19,0,0,1-1.2-1.19v-2.45a1.2,1.2,0,0,1,1.2-1.2h2.84a1.2,1.2,0,0,1,1.2,1.2v2.45A1.19,1.19,0,0,1,109.22,151.41Z" style="fill:#c341ab"/>
  <path d="M101.74,158.8H98.9a1.2,1.2,0,0,1-1.2-1.2v-2.45A1.19,1.19,0,0,1,98.9,154h2.84a1.19,1.19,0,0,1,1.2,1.19v2.45A1.2,1.2,0,0,1,101.74,158.8Z" style="fill:#c341ab"/>
  <path d="M101.74,151.41H98.9a1.19,1.19,0,0,1-1.2-1.19v-2.46a1.19,1.19,0,0,1,1.2-1.19h2.84a1.19,1.19,0,0,1,1.2,1.19v2.46A1.19,1.19,0,0,1,101.74,151.41Z" style="fill:#c341ab"/>
  <path d="M109.22,158.8h-2.84a1.2,1.2,0,0,1-1.2-1.2v-2.45a1.19,1.19,0,0,1,1.2-1.19h2.84a1.19,1.19,0,0,1,1.2,1.19v2.45A1.2,1.2,0,0,1,109.22,158.8Z" style="fill:#c341ab"/>
  <path d="M98.89,161.34h2.85a1.2,1.2,0,0,1,1.2,1.2V165a1.2,1.2,0,0,1-1.2,1.2H98.9a1.2,1.2,0,0,1-1.2-1.2v-2.44A1.19,1.19,0,0,1,98.89,161.34Z" style="fill:#c341ab"/>
  <path d="M109.22,166.18h-2.84a1.19,1.19,0,0,1-1.2-1.19v-2.45a1.2,1.2,0,0,1,1.2-1.2h2.84a1.2,1.2,0,0,1,1.2,1.2V165A1.19,1.19,0,0,1,109.22,166.18Z" style="fill:#c341ab"/>
  <path d="M105.6,125.36c2.16,0,3.86,2.11,3.86,4.82s-1.7,4.82-3.86,4.82v-1.33c1.29,0,2.39-1.6,2.39-3.49s-1.1-3.5-2.39-3.5-2.39,1.61-2.39,3.5a5,5,0,0,0,.1,1h-1.49a6.12,6.12,0,0,1-.08-1C101.74,127.47,103.43,125.36,105.6,125.36Z" style="fill:#cc7b35"/>
  <path d="M92.1,125.36c2.16,0,3.86,2.11,3.86,4.82S94.26,135,92.1,135v-1.33c1.29,0,2.39-1.6,2.39-3.49s-1.1-3.5-2.39-3.5-2.39,1.61-2.39,3.5a5,5,0,0,0,.1,1H88.32a6.12,6.12,0,0,1-.08-1C88.24,127.47,89.93,125.36,92.1,125.36Z" style="fill:#cc7b35"/>
  <path d="M78.6,125.36c2.16,0,3.86,2.11,3.86,4.82S80.76,135,78.6,135v-1.33c1.29,0,2.39-1.6,2.39-3.49s-1.1-3.5-2.39-3.5-2.39,1.61-2.39,3.5a5,5,0,0,0,.1,1H74.82a6.12,6.12,0,0,1-.08-1C74.74,127.47,76.44,125.36,78.6,125.36Z" style="fill:#cc7b35"/>
  <path d="M65.1,125.36c2.16,0,3.86,2.11,3.86,4.82S67.26,135,65.1,135v-1.33c1.3,0,2.39-1.6,2.39-3.49s-1.09-3.5-2.39-3.5-2.39,1.61-2.39,3.5a5,5,0,0,0,.1,1H61.32a6.12,6.12,0,0,1-.08-1C61.24,127.47,62.94,125.36,65.1,125.36Z" style="fill:#cc7b35"/>
  <g style="clip-path:url(#clip-path)">
    <path d="M256.36,33h-7.82V79.67h7.82c1.39,0,2.53-10.44,2.53-23.31S257.75,33,256.36,33Z" style="fill:#9b9ebf"/>
    <path d="M247,26.79h-9.87V85.92H247c1.76,0,3.19-13.23,3.19-29.56S248.8,26.79,247,26.79Z" style="fill:#9b9ebf"/>
    <path d="M234,56.36c0-16.33,1.43-29.57,3.19-29.57s3.19,13.24,3.19,29.57-1.43,29.56-3.19,29.56S234,72.69,234,56.36Z" style="fill:#6c6d99"/>
    <path d="M237.63,53.71H70.77V59H237.63c.36,0,.66-1.18.66-2.64S238,53.71,237.63,53.71Z" style="fill:#6c6d99"/>
    <path d="M72.1,26.79H62.23V85.92H72.1c1.77,0,3.19-13.23,3.19-29.56S73.87,26.79,72.1,26.79Z" style="fill:#9b9ebf"/>
    <path d="M65.43,56.36c0,16.33-1.43,29.56-3.2,29.56S59,72.69,59,56.36s1.43-29.57,3.19-29.57S65.43,40,65.43,56.36Z" style="fill:#6c6d99"/>
    <rect width="7.82" height="46.63" x="52.91" y="33.04" style="fill:#9b9ebf"/>
    <path d="M55.44,56.36c0,12.87-1.13,23.31-2.53,23.31s-2.53-10.44-2.53-23.31S51.52,33,52.91,33,55.44,43.48,55.44,56.36Z" style="fill:#6c6d99"/>
    <path d="M63.27,56.36c0,12.87-1.14,23.31-2.53,23.31s-2.53-10.44-2.53-23.31S59.34,33,60.74,33,63.27,43.48,63.27,56.36Z" style="fill:#9b9ebf"/>
    <path d="M208.32,44.57A4.83,4.83,0,0,0,206.81,46s-2.88-2.94-4.93-1.64c0,0-2.86-1.25-4.75.92,0,0-3.93-2.86-6.91,3.3-1.38,2.86-.68,4.77,2.8,5.08l2.24-4.43c-5.08,10.15-4.47,15.2-2.15,17.6-.71,11.78-.41,20.89-.41,20.89l18.92-4.07s-4.51-18-3.75-19.61c1.87-3.88,7.55-7.57,8.78-10.41S210.2,43.45,208.32,44.57Z" style="fill:#f08e6b"/>
    <path d="M197.11,45l-.05.69s1.07.23,2.17,3.81l.69-.19C198.67,45.24,197.36,45,197.11,45Z" style="fill:#be6152"/>
    <path d="M202.05,44l-.34.61c.11.06,2.48,1.36,2.12,5.38l.71.06C205,45.59,202.17,44.11,202.05,44Z" style="fill:#be6152"/>
    <path d="M209.52,50.39a15.51,15.51,0,0,0-2.63-4.88l-.54.45A15.33,15.33,0,0,1,209,51l.14.43,2.23-1.33-.37-.59Z" style="fill:#be6152"/>
    <path d="M178.59,99S191.07,80.51,192.94,68c0,0,8.75-3.61,15.89,2.09,0,0,10.86,21.69-.46,44.67-1.38,2.8-22.8,33.61-46.89,48.41l-10.92-37.06C172.63,109.12,178.59,99,178.59,99Z" style="fill:#5c68d4"/>
    <path d="M141.62,124.1c9.42,1.88,4.43,87.79,4,90H121C121,189.43,128.86,121.55,141.62,124.1Z" style="fill:#5c68d4"/>
    <path d="M175.13,108.61c-.85,3.11-1.45,15.08-1.45,15.08-5.12-.84-23.09,1.32-23.09,1.32,2.14-5,3.31-14.83,3.31-14.83Z" style="fill:#f08e6b"/>
    <path d="M152,120.56s12.9,7.4,18.64-8.18l-17.82-.27A35.53,35.53,0,0,1,152,120.56Z" style="fill:#be6152"/>
    <path d="M147.79,125.42c6.41,1.1,12.75-2.38,18.24-3.23a13,13,0,0,0,8.09-4.51,72.59,72.59,0,0,1,9,25.38c3.41,22.81,4.13,71,4.13,71H132S135.66,123.34,147.79,125.42Z" style="fill:#5c68d4"/>
    <rect width="3.63" height="50.82" x="219.6" y="188.35" style="fill:#cc7b35" transform="rotate(-68.55 221.395 213.759)"/>
    <polygon points="242.12 180.94 228.6 175.63 213.88 193.25 240.9 203.87 242.12 180.94" style="fill:#cc7b35"/>
    <rect width="43.56" height="14.52" x="202.96" y="198.05" style="fill:#fcc561" transform="rotate(21.45 224.766 205.371)"/>
    <path d="M210.75,121.81l-8,20.27a14.53,14.53,0,0,0,8.2,18.83L265,182.15a14.53,14.53,0,0,0,18.83-8.2l8-20.28Zm69.74,50.81a10.9,10.9,0,0,1-14.12,6.15l-54.06-21.24a10.9,10.9,0,0,1-6.15-14.12l6.64-16.89,74.33,29.2Z" style="fill:#cc7b35"/>
    <path d="M281,141.6l-54.07-21.24-13.27,33.79a21.77,21.77,0,0,0,12.3,28.23l13.52,5.32a21.78,21.78,0,0,0,28.24-12.31Z" style="fill:#fcc561"/>
    <path d="M249.17,146.24l.56,6.63a1.26,1.26,0,0,0,.63,1l5.78,3.3a1.26,1.26,0,0,1-.14,2.26L249.87,162a1.27,1.27,0,0,0-.75.91l-1.35,6.52a1.27,1.27,0,0,1-2.2.57l-4.35-5a1.29,1.29,0,0,0-1.1-.43l-6.61.73a1.26,1.26,0,0,1-1.22-1.91l3.44-5.7a1.23,1.23,0,0,0,.07-1.18l-2.73-6.06a1.26,1.26,0,0,1,1.44-1.75l6.48,1.52a1.29,1.29,0,0,0,1.14-.3l4.93-4.48A1.27,1.27,0,0,1,249.17,146.24Z" style="fill:#cc7b35"/>
    <path d="M147,79.81c.8-7.13,7.81-5.1,7.81-5.1a7.14,7.14,0,0,1-4.46-5.25s1.65,1.05,11.94.44c14.24-.86,13.86,6.91,13.86,6.91,9.56-4.54,13.86,19.19,2.44,30.83-11.79,12-24.64,1.4-30.24-4.24S149.51,95.23,150,92,146.2,86.94,147,79.81Z" style="fill:#211c3c"/>
    <path d="M151.5,86.33c3.33-8.12,8.71-3.76,8.71-3.76,9-.75,16.21,5,16.1,7.89a57.47,57.47,0,0,1-1.05,7.24h.05a5.08,5.08,0,0,1,4.28,5.83,5.21,5.21,0,0,1-6,4.15,5.89,5.89,0,0,1-1.06-.29c-1.23,3.71-2.79,8.47-6.6,10.84a13.35,13.35,0,0,1-8.34,1.8c-4.92-1-9.09-3-11.68-7.19-1.92-3.1-.09-8.45.84-12.17A139.4,139.4,0,0,1,151.5,86.33Z" style="fill:#f08e6b"/>
    <path d="M153.61,102.74c4,2.34,7.6,1.37,7.88,2.38.53,1.92-3.16,4-6.64,2a5.58,5.58,0,0,1-2.85-3.88C151.9,102.18,152.87,102.31,153.61,102.74Z" style="fill:#211c3c"/>
    <path d="M156.7,88.1l-.36.6a9.15,9.15,0,0,0-5.31-.44l-.11-.68C154.69,87,156.62,88.06,156.7,88.1Z" style="fill:#211c3c"/>
    <path d="M169.34,91.16l-.47.52c-2.67-2.26-4.72-2.37-4.74-2.37l0-.69C164.25,88.62,166.46,88.72,169.34,91.16Z" style="fill:#211c3c"/>
    <path d="M166.09,95a.83.83,0,0,1,.7,1,.86.86,0,0,1-1,.68.84.84,0,0,1-.7-1A.85.85,0,0,1,166.09,95Z" style="fill:#211c3c"/>
    <path d="M153.92,91.59a.83.83,0,0,1,.7,1,.85.85,0,0,1-1,.68.83.83,0,0,1-.7-1A.85.85,0,0,1,153.92,91.59Z" style="fill:#211c3c"/>
    <path d="M158.57,96.81l0,.69c-.27,0-.62.08-.73.29s.1.74.17.85l-.6.37a1.68,1.68,0,0,1-.2-1.54A1.46,1.46,0,0,1,158.57,96.81Z" style="fill:#be6152"/>
    <path d="M176.86,100.09a2.87,2.87,0,0,1,1.36,3.14c-.5,2.38-3,2.86-4.25,2.78l.05-.69c.12,0,3,.15,3.5-2.23a2.17,2.17,0,0,0-1-2.41,2.76,2.76,0,0,0-2.95,0l-.42-.56A3.48,3.48,0,0,1,176.86,100.09Z" style="fill:#be6152"/>
    <path d="M176,100.34l.69-.17a2.3,2.3,0,0,1-.25,2.07,2.52,2.52,0,0,1-1.73.88l-.05-.68a1.87,1.87,0,0,0,1.2-.61A1.67,1.67,0,0,0,176,100.34Z" style="fill:#be6152"/>
    <path d="M99.66,44.88c1.58-2.4,4.58-1.52,4.58-1.52,1.86-1.55,5.11,1,5.11,1a4.74,4.74,0,0,1,1.31-1.6c1.71-1.35,10.31,5,9.48,7.92s-6,9.49-7.3,13.57c-.53,1.65,6.37,19,6.37,19L101,89.66s-1.53-9-2.42-20.76C96,66.81,94.68,59.73,98.34,49L96.71,53.7c-3.49.14-4.44-1.66-3.46-4.67C95.37,42.54,99.66,44.88,99.66,44.88Z" style="fill:#f08e6b"/>
    <path d="M103,48.51l-.66.28c-1.57-3.41-2.67-3.5-2.67-3.5l0-.69C99.85,44.57,101.18,44.65,103,48.51Z" style="fill:#be6152"/>
    <path d="M107.66,48.71l-.71,0c-.2-4-2.73-5-2.84-5.06l.26-.64C104.49,43.08,107.44,44.2,107.66,48.71Z" style="fill:#be6152"/>
    <path d="M112.64,48.38l1.32-1,.45.53-2,1.61-.19-.41a15.9,15.9,0,0,0-3.3-4.69l.48-.51A15.91,15.91,0,0,1,112.64,48.38Z" style="fill:#be6152"/>
    <path d="M114.41,68.19s15.64,22.39,18.74,30.55c3,7.94,7.54,26.9,32.88,23.45L149.39,161C96.67,139.19,99.15,75.3,99.15,75.3,107.83,64.78,114.41,68.19,114.41,68.19Z" style="fill:#5c68d4"/>
  </g>
  <circle cx="150.98" cy="22.74" r="22.74" style="fill:#6ec477"/>
  <path d="M146.89,26.13,139,18.26l-5.19,5.18,10.48,10.48a3.65,3.65,0,0,0,5.18,0l18.26-18.25-5.19-5.19Z" style="fill:#fff"/>
</svg>
