<svg xmlns="http://www.w3.org/2000/svg" xmlns:xlink="http://www.w3.org/1999/xlink" viewBox="0 0 841.9 813.4" xml:space="preserve"><path fill="#464547" d="M84.6 657.9h-5.1zM135 657.9h5.1-5.1z"/><defs><path id="a" d="M193.9 149.5S171.8 162 202.8 298c-8.4-2.3-15.6 12.9-15.6 29.9 0 20.8 11.3 37.6 21.2 37.6v49.6c-36.5 18.9-68.7 45-94.7 76.6-17.3 21.1-31.8 44.6-43.1 70 0 0-31 64.4 2.7 88.5v7.6H7c-3.9 0-7 3.1-7 7v128.6c0 3.9 3.1 7 7 7h141.3c-.3 4-.5 8.3-.5 13h99.7l23.4-91c37.8.6 82 1.2 99.1 1.2V.1C199.9 3.8 193.9 149.5 193.9 149.5zM135 657.9H84.6V656c11.1 3.7 20.8 1.8 29.1-3.2 2.1-1.3 4.2-2.7 6.1-4.4 1.8 2 4 3.2 6.9 3 4.5-.4 6.9-4.1 8.2-8.5v15zm73.5-26.9-1.1 11.2-1.6 15.7h-59.6v-14.8c0-6.4-4.2-11.8-10.1-13.6v-1c9.5-15.6 14.2-31.7 14.2-31.7 13.4-30.4 33.4-56.8 58.1-77.7V631z"/></defs><clipPath id="b"><use xlink:href="#a" overflow="visible"/></clipPath><g clip-path="url(#b)"><path fill="#E8C9AE" d="M126.8 651.3c11.4-.9 9.3-23.1 9.3-23.1l-11.2.9-11.2.9c.1.1 1.7 22.3 13.1 21.3z"/><path fill="#F1F2F2" d="M146.2 657.9H135v-14.8c0-1.6-1.3-2.9-2.9-2.9H87.6c-1.6 0-2.9 1.3-2.9 2.9v14.8H73.4v-14.8c0-7.8 6.4-14.2 14.2-14.2H132c7.8 0 14.2 6.4 14.2 14.2v14.8z"/><path opacity=".2" d="M133.7 635.7H85.9c-3.5 0-6.3 2.8-6.3 6.3v15.9h5.1v-14.8c0-1.6 1.3-2.9 2.9-2.9H132c1.6 0 2.9 1.3 2.9 2.9v14.8h5.1V642c.1-3.5-2.8-6.3-6.3-6.3z"/><path fill="#464547" d="M150.3 596.9c-26.5-11.7-53.1-23.4-79.6-35.1 36.3-82.4 107.5-144.3 194.1-168.9l23.7 83.7c-61.7 17.5-112.3 61.6-138.2 120.3z"/><path fill="#E8C9AE" d="M70.7 561.8s-36.3 75.4 12.4 93.6c45.3 16.9 67.3-58.5 67.3-58.5l-79.7-35.1z"/><path fill="#464547" d="m208.5 631-13.1 130.2s-47.6-28.8-47.6 52.2h99.7L294.4 631h-85.9zM531.6 631l13.1 130.2s47.6-28.8 47.6 52.2h-99.7L445.7 631h85.9z"/><path fill="#464547" d="M208.5 721.4s129.2 2.2 161.6 2.2 161.6-2.2 161.6-2.2V631H208.5v90.4z"/><path fill="#F1F2F2" d="M531.6 411.1V631s-33.1 18.1-161.6 18.1S208.5 631 208.5 631V411.1h323.1z"/><path fill="#FF4D53" d="m378.3 438.5 16.5-27.4h-49.5l16.5 27.4-26 147.8 34.2 31.2 34.3-31.2z"/><path opacity=".1" d="M370 411.1v206.4l34.3-31.2-26-147.8 16.5-27.4zM370 411.1l-36.9 54.8-65.7-54.8z"/><path fill="#F1F2F2" d="m370 411.1-36.9 47-65.7-47z"/><path opacity=".1" d="m370 411.1 36.9 54.8 65.7-54.8z"/><path fill="#F1F2F2" d="m370 411.1 36.9 47 65.7-47z"/><path opacity=".1" d="M532.7 642.2c-16.2 5.4-61.3 16.1-162.7 16.1-101.4 0-146.4-10.7-162.7-16.1l1.1-11.2h323.1l1.2 11.2z"/><path fill="#464547" d="m460.2 411.1-90.2 119-90.2-119h-71.4V631s33.1 18.1 161.6 18.1S531.6 631 531.6 631V411.1h-71.4z"/><path fill="#6D6E71" d="m263.9 411.1 3.5 44.9 27 2.1-9.2 22.9 84.8 49.1-90.1-119zM476.1 411.1l-3.5 44.9-26.9 2.1 9.2 22.9-84.9 49.1 90.2-119z"/><path fill="#E8C9AE" d="M387.4 69.8h-34.8c-79.6 0-144.2 67.5-144.2 174.6v166.7s22.2 12.1 161.6 12.1 161.6-12.1 161.6-12.1V244.4c0-107.1-64.5-174.6-144.2-174.6z"/><path fill="#464547" d="M531.6 321.6c-6.4-22.8-14.2-77.2-20.2-101.6h29.5l-9.3 101.6z"/><path fill="#E8C9AE" d="M531.6 302.2v63.3c9.8 0 21.1-16.8 21.1-37.6.1-20.7-10.6-38.7-21.1-25.7zM208.5 302.2v63.3c-9.8 0-21.1-16.8-21.1-37.6-.1-20.7 10.5-38.7 21.1-25.7z"/><path fill="#BF4348" d="M370 397.8c26.4 0 44.6-23 40.8-46.6-27.1 4.1-54.5 4.1-81.6 0-3.7 23.6 14.5 46.6 40.8 46.6z"/><ellipse fill="#464547" cx="330.3" cy="310.7" rx="9.7" ry="20.8"/><ellipse fill="#464547" cx="409.8" cy="310.7" rx="9.7" ry="20.8"/><path opacity=".1" d="m540.8 220-2.6 28c-151.7-8.8-312.4-18.4-312.4-18.4l-17 1.1c5.2-99.2 67.6-161 143.8-161h34.8c73.4 0 134 57.3 143 150.2h10.4z"/><path fill="#464547" d="M208.5 321.6s14.3-73.7 17.3-92l326.7-3.9S563.5 0 376.6 0C200.1 0 193.9 149.5 193.9 149.5s-24.5 13.9 14.6 172.1z"/><path fill="#58595B" d="M212.6 800.5H7c-3.9 0-7-3.1-7-7V664.9c0-3.9 3.1-7 7-7h205.6c3.9 0 7 3.1 7 7v128.6c0 3.8-3.1 7-7 7z"/><path opacity=".2" d="M219.6 732.5H0v-67.6c0-3.9 3.1-7 7-7h205.6c3.9 0 7 3.1 7 7v67.6z"/><path fill="#58595B" d="M219.6 727.3H0v-62.5c0-3.9 3.1-7 7-7h205.6c3.9 0 7 3.1 7 7v62.5z"/><path fill="#F7CC4D" d="M53.8 745.6H40.6c-2.4 0-4.3-1.9-4.3-4.3v-23.8c0-2.4 1.9-4.3 4.3-4.3h13.1c2.4 0 4.3 1.9 4.3 4.3v23.8c.1 2.4-1.9 4.3-4.2 4.3z"/><path opacity=".2" d="M56.3 718.7v21.9c0 1.8-1.4 3.2-3.2 3.2H41.5c-1.8 0-3.2-1.4-3.2-3.2v-21.9l-1.8-1.2v23.8c0 2.4 1.9 4.3 4.3 4.3H54c2.4 0 4.3-1.9 4.3-4.3v-23.8l-2 1.2z"/><path opacity=".25" d="M38.1 718.3c0-1.8 1.4-3.2 3.2-3.2h11.6c1.8 0 3.2 1.4 3.2 3.2v.4l1.8-1.2c0-2.4-1.9-4.3-4.3-4.3H40.4c-2.4 0-4.3 1.9-4.3 4.3l1.8 1.2v-.4z"/><path fill="#F7CC4D" d="M165.8 745.6H179c2.4 0 4.3-1.9 4.3-4.3v-23.8c0-2.4-1.9-4.3-4.3-4.3h-13.1c-2.4 0-4.3 1.9-4.3 4.3v23.8c-.1 2.4 1.8 4.3 4.2 4.3z"/><path opacity=".2" d="M163.3 718.7v21.9c0 1.8 1.4 3.2 3.2 3.2h11.6c1.8 0 3.2-1.4 3.2-3.2v-21.9l1.8-1.2v23.8c0 2.4-1.9 4.3-4.3 4.3h-13.2c-2.4 0-4.3-1.9-4.3-4.3v-23.8l2 1.2z"/><path opacity=".25" d="M181.5 718.3c0-1.8-1.4-3.2-3.2-3.2h-11.6c-1.8 0-3.2 1.4-3.2 3.2v.4l-1.8-1.2c0-2.4 1.9-4.3 4.3-4.3h13.2c2.4 0 4.3 1.9 4.3 4.3l-1.8 1.2v-.4z"/></g><defs><path id="c" d="M841.9 512.3c0 45.8-25.9 83-57.9 83h-19.2c-18.2 0-34.4-12.1-45-30.9-7.2 2.9-17.1 4.5-30.6 4.5H685.6c-19.5 0-38.8-1.9-57.7-5.5-10.6 19.4-27.1 31.9-45.6 31.9h-19.2c-11.6 0-22.5-5-31.5-13.4V631l10 100 3.6 35.4s.3-.1.9-.2h.1c.1 0 .2-.1.4-.1.1 0 .3-.1.4-.1.1 0 .2 0 .3-.1.1 0 .2 0 .4-.1.1 0 .3 0 .4-.1.2 0 .4-.1.6-.1.2 0 .3-.1.5-.1.1 0 .3 0 .4-.1.2 0 .3 0 .5-.1.2 0 .3-.1.5-.1.3 0 .6-.1.9-.1.1 0 .3 0 .4-.1.2 0 .4-.1.7-.1h.4c.5 0 .9-.1 1.4-.1h.3c.3 0 .6 0 .9-.1h.2c1.8-.1 3.6-.2 5.6-.1H563c.5 0 1.1.1 1.7.1h.1c.3 0 .5 0 .7.1.2 0 .3 0 .5.1.3 0 .6.1.8.1.2 0 .5.1.7.1.1 0 .3 0 .4.1.3 0 .5.1.8.1h.4c.4.1.7.1 1.1.2h.4l1.2.3c.4.1.8.2 1.2.4.1 0 .2 0 .3.1.2.1.4.1.6.2.1.1.3.1.4.2.1 0 .2.1.3.1.1 0 .2.1.3.1.4.2.8.3 1.2.5 0 0 .1 0 .1.1.1 0 .2.1.3.1.4.2.8.4 1.1.5.1 0 .1.1.2.1.4.2.7.4 1.1.6 0 0 .1 0 .1.1.1 0 .1.1.2.1l.9.6c.1.1.3.2.4.3.3.2.6.4.9.7.1 0 .1.1.2.1.1.1.1.1.2.1.4.3.7.6 1.1.9 0 0 .1 0 .1.1 2.3 2 4.4 4.5 6 7.6.2.4.5.9.7 1.4.9 1.9 1.6 4 2.2 6.4.1.6.3 1.2.4 1.8.4 1.9.6 3.8.8 6 .1 1.4.1 2.9.1 4.5s-.1 3.2-.2 4.9c-.1 1.3-.2 2.8-.4 4.2 0 .4-.1.7-.1 1.1-.3 2-1.8 3.5-3.8 3.7H492c-.6 0-1.2-.3-1.6-.6-.2-.2-.4-.4-.6-.7-.2-.3-.3-.5-.4-.9-.3-1.3-.8-3.3-1.3-5.5-2.8-11.5-7.5-31.1-7.8-32.4-.4-1.6 1.2-1.7 1.3-1.7l-11.1-43.3c-.9-3.5-4-5.9-7.6-5.8-37.4.5-77.5 1-93.1 1V.1c2.2 0 4.4-.1 6.7-.1 186.9 0 175.9 225.8 175.9 225.8l-12.3.1-6.8 74.3c9.9-8.8 19.2 8.3 19.2 27.8 0 20.8-11.3 37.6-21.1 37.6V417c5.2 5.3 10.7 10.4 16.4 15.1 4.8-1.9 9.9-2.9 15.1-2.9h19.2c22.5 0 41.9 18.4 51.5 45.2 10.3-3.8 27.3-6.2 55.4-6.2 10.5 0 18.8 1 25.4 2.8 10-25 28.7-41.8 50.2-41.8H784c32 .1 57.9 37.2 57.9 83.1z"/></defs><clipPath id="d"><use xlink:href="#c" overflow="visible"/></clipPath><g clip-path="url(#d)"><path fill="#E8C9AE" d="M51.9 481.9c-.4 29-.7 58-1.1 87 90 1.1 175.9-38 234.1-106.7-22.1-18.8-44.2-37.5-66.4-56.3-41.3 48.9-102.5 76.8-166.6 76zM688.2 481.9c.4 29 .7 58 1.1 87-90 1.1-175.9-38-234.1-106.7 22.1-18.8 44.2-37.5 66.4-56.3 41.3 48.9 102.5 76.8 166.6 76zM531.6 631l13.6 135.4s55.1-15.3 47.6 43.4c-.3 2.1-2 3.7-4.1 3.7h-96.1L445.7 631h85.9z"/><path fill="#FF834A" d="M545.2 766.4s-9.8 10.7-32.2 10.7c-22.5 0-25.1-1.4-27.2-3.6-1-1.1-2.4-1.7-3.9-1.7 0 0-1.7 0-1.3 1.7.4 1.5 7 29 9.2 37.9.3 1.3 1.5 2.2 2.8 2.2h96.1c2.1 0 3.9-1.6 4.1-3.7 7.5-58.8-47.6-43.5-47.6-43.5z"/><path fill="#E9F0F7" d="M583.2 771.9s-1.4 7.1-18.1 4.6c-13.5-2.1-21.1-5.9-23.4-7.3 2.2-1.5 3.3-2.7 3.5-2.9s7.3-2 16.2-1.8c.4 0 .9 0 1.4.1.7 0 1.3.1 2 .1.3 0 .7.1 1 .1.3 0 .7.1 1.1.1.2 0 .5.1.7.1.4.1.8.1 1.3.2h.2c.4.1.9.2 1.4.3h.1c.5.1 1 .2 1.4.4.5.1 1 .3 1.5.4.4.1.9.3 1.3.5 1 .4 2.1.8 3.1 1.4.5.2 1 .5 1.4.8.9.5 1.8 1.1 2.6 1.7.1 0 .1.1.2.1.3.5.7.8 1.1 1.1zM592.9 808.7c0 .4-.1.7-.1 1.1-.3 2.1-2.1 3.7-4.1 3.7h-96.1c-1.3 0-2.5-.9-2.8-2.2-.4-1.5-.9-3.6-1.5-6.2.4-.1 6.8-1 8.9 3.6h95.7z"/><path fill="#E8C9AE" d="m208.4 631-13.6 135.4s-55.1-15.3-47.6 43.4c.3 2.1 2 3.7 4.1 3.7h96.1L294.3 631h-85.9z"/><path fill="#FF834A" d="M194.8 766.4s9.8 10.7 32.2 10.7c22.5 0 25.1-1.4 27.2-3.6 1-1.1 2.4-1.7 3.9-1.7 0 0 1.7 0 1.3 1.7-.4 1.5-7 29-9.2 37.9-.3 1.3-1.5 2.2-2.8 2.2h-96.1c-2.1 0-3.9-1.6-4.1-3.7-7.5-58.8 47.6-43.5 47.6-43.5z"/><path fill="#E9F0F7" d="M156.8 771.9s1.4 7.1 18.1 4.6c13.5-2.1 21.1-5.9 23.4-7.3-2.2-1.5-3.3-2.7-3.5-2.9s-7.3-2-16.2-1.8c-.4 0-.9 0-1.4.1-.7 0-1.3.1-2 .1-.3 0-.7.1-1 .1-.3 0-.7.1-1.1.1-.2 0-.5.1-.7.1-.4.1-.8.1-1.3.2h-.2c-.4.1-.9.2-1.4.3h-.1c-.5.1-1 .2-1.4.4-.5.1-1 .3-1.5.4-.4.1-.9.3-1.3.5-1 .4-2.1.8-3.1 1.4-.5.2-1 .5-1.4.8-.9.5-1.8 1.1-2.6 1.7-.1 0-.1.1-.2.1-.3.5-.7.8-1.1 1.1zM147.1 808.7c0 .4.1.7.1 1.1.3 2.1 2.1 3.7 4.1 3.7h96.1c1.3 0 2.5-.9 2.8-2.2.4-1.5.9-3.6 1.5-6.2-.4-.1-6.8-1-8.9 3.6h-95.7z"/><path fill="#C24040" d="m541.6 731-1-9.6-9.1-90.4h-323l-9.2 90.4-1 9.6h70.2l.7-2.6c.9-3.5 4-5.9 7.6-5.8 37.4.5 77.6 1 93.1 1 15.6 0 55.6-.5 93.1-1 3.6-.1 6.7 2.4 7.6 5.8l.7 2.5h70.3z"/><path fill="#F1F2F2" d="M531.6 411.1V631s-33.1 18.1-161.6 18.1S208.5 631 208.5 631V411.1h323.1z"/><path fill="#E8C9AE" d="M387.4 69.8h-34.8c-79.6 0-144.2 67.5-144.2 174.6v166.7s22.2 12.1 161.6 12.1 161.6-12.1 161.6-12.1V244.4c0-107.1-64.5-174.6-144.2-174.6z"/><path fill="#464547" d="M531.6 321.6c-6.4-22.8-14.2-77.2-20.2-101.6h29.5l-9.3 101.6z"/><path fill="#E8C9AE" d="M531.6 302.2v63.3c9.8 0 21.1-16.8 21.1-37.6.1-20.7-10.6-38.7-21.1-25.7zM208.5 302.2v63.3c-9.8 0-21.1-16.8-21.1-37.6-.1-20.7 10.5-38.7 21.1-25.7z"/><path fill="#BF4348" d="M370 397.8c26.4 0 44.6-23 40.8-46.6-27.1 4.1-54.5 4.1-81.6 0-3.7 23.6 14.5 46.6 40.8 46.6z"/><ellipse fill="#464547" cx="330.3" cy="310.7" rx="9.7" ry="20.8"/><ellipse fill="#464547" cx="409.8" cy="310.7" rx="9.7" ry="20.8"/><path opacity=".1" d="m540.8 220-2.6 28c-151.7-8.8-312.4-18.4-312.4-18.4l-17 1.1c5.2-99.2 67.6-161 143.8-161h34.8c73.4 0 134 57.3 143 150.2h10.4z"/><path fill="#464547" d="M208.5 321.6s14.3-73.7 17.3-92l326.7-3.9S563.5 0 376.6 0C200.1 0 193.9 149.5 193.9 149.5s-24.5 13.9 14.6 172.1z"/><path fill="#E8C9AE" d="M370 473.4c46.5 0 118.7-27.9 118.7-62.4H251.4c0 34.5 72.1 62.4 118.6 62.4z"/><path fill="#E9F0F7" d="M498.7 297.8s-16.7 30.4 0 30.4 0-30.4 0-30.4z"/><path fill="#E8C9AE" d="M508 472.2c0 29.9 10.6 54.6 23.6 54.6V417.1c-13 0-23.6 25.2-23.6 55.1z"/><path fill="#58595B" d="M784 429.3h-19.2v4.7c-22.5 11.4-38.6 42.1-38.6 78.3 0 36.2 16.1 66.9 38.6 78.3v4.7H784c31.9 0 57.8-37.2 57.8-83 .1-45.9-25.8-83-57.8-83z"/><path fill="#424242" d="M822.7 512.3c0 45.8-25.9 83-57.8 83s-57.8-37.2-57.8-83 25.9-83 57.8-83 57.8 37.1 57.8 83z"/><path fill="#E9F0F7" d="M766.4 498.6H561.6v27.3H766.5c5.3 0 9.5-6.1 9.5-13.6-.1-7.6-4.3-13.7-9.6-13.7z"/><path fill="#E8C9AE" d="M745.7 529.1c-1.9 5.2-3.9 9.7-5.8 13.4-8.1 15.7-15.7 19.8-15.7 19.8v-74.5s7.5-.8 14.5 2.3c8.5 4 16.1 13.9 7 39z"/><path opacity=".1" d="M741.4 518.6c0 20-17.2 43.7-17.2 43.7v-74.5s7.5-.8 14.5 2.3c2.7 8.2 2.7 18 2.7 28.5z"/><path opacity=".15" d="M689.2 568.9c-1.1 0-2.2.1-3.4 0-42.3-1.6-51.8-22.5-52.8-50.3-.6-15.6-17.9-20-17.9-20-.3-8.5-1.2-17.9 14.9-24 18.8 5 38.3 7.5 58.1 7.2.4 29.1.8 58.1 1.1 87.1z"/><path fill="#E8C9AE" d="M739.5 518.6c0 27.8 0 50.3-50.3 50.3-45.5 0-49.3-22.5-50.3-50.3-.6-15.6-20.4-20-20.4-20-.5-13.8-2.6-30.3 70.7-30.3 50.3 0 50.3 22.5 50.3 50.3z"/><path fill="#58595B" d="M582.3 429.3h-19.2v4.7c-22.5 11.4-38.6 42.1-38.6 78.3 0 36.2 16.1 66.9 38.6 78.3v4.7h19.2c31.9 0 57.8-37.2 57.8-83 .1-45.9-25.8-83-57.8-83z"/><path fill="#424242" d="M621 512.3c0 45.8-25.9 83-57.8 83s-57.8-37.2-57.8-83 25.9-83 57.8-83 57.8 37.1 57.8 83z"/><path fill="#939598" d="M564.7 498.6h-3.2v.8c-3.7 1.9-6.4 6.9-6.4 12.9 0 5.9 2.7 11 6.4 12.9v.8h3.2c5.3 0 9.5-6.1 9.5-13.6 0-7.7-4.2-13.8-9.5-13.8z"/><path fill="#E9F0F7" d="M571.1 512.3c0 7.5-4.3 13.6-9.5 13.6-5.3 0-9.5-6.1-9.5-13.6s4.3-13.6 9.5-13.6c5.2-.1 9.5 6 9.5 13.6z"/><path fill="#E8C9AE" d="M232.1 472.2c0 29.9-10.6 54.6-23.6 54.6V417.1c13 0 23.6 25.2 23.6 55.1z"/><path fill="#58595B" d="M-44 429.3h19.2v4.7c22.5 11.4 38.6 42.1 38.6 78.3 0 36.2-16.1 66.9-38.6 78.3v4.7H-44c-31.9 0-57.8-37.2-57.8-83 0-45.9 25.9-83 57.8-83z"/><path fill="#424242" d="M-82.6 512.3c0 45.8 25.9 83 57.8 83s57.8-37.2 57.8-83-25.9-83-57.8-83-57.8 37.1-57.8 83z"/><path fill="#E9F0F7" d="M-26.3 498.6H178.6v27.3h-205c-5.3 0-9.5-6.1-9.5-13.6.1-7.6 4.3-13.7 9.6-13.7z"/><path fill="#E8C9AE" d="M-5.6 529.1c1.9 5.2 3.9 9.7 5.8 13.4 8.1 15.7 15.7 19.8 15.7 19.8v-74.5s-7.5-.8-14.5 2.3c-8.5 4-16.1 13.9-7 39z"/><path opacity=".1" d="M-1.3 518.6c0 20 17.2 43.7 17.2 43.7v-74.5s-7.5-.8-14.5 2.3c-2.7 8.2-2.7 18-2.7 28.5zM50.8 568.9c1.1 0 2.2.1 3.4 0 42.3-1.6 49.3-22.5 50.3-50.3.6-15.6 20.4-20 20.4-20 .3-8.5 1.2-17.9-14.9-24-18.8 5-38.3 7.5-58.1 7.2-.3 29.1-.7 58.1-1.1 87.1z"/><path fill="#E8C9AE" d="M.5 518.6c0 27.8 0 50.3 50.3 50.3 45.5 0 49.3-22.5 50.3-50.3.6-15.6 20.4-20 20.4-20 .5-13.8 2.6-30.3-70.7-30.3C.5 468.3.5 490.8.5 518.6z"/><path fill="#58595B" d="M157.7 429.3h19.2v4.7c22.5 11.4 38.6 42.1 38.6 78.3 0 36.2-16.1 66.9-38.6 78.3v4.7h-19.2c-31.9 0-57.8-37.2-57.8-83 0-45.9 25.9-83 57.8-83z"/><path fill="#424242" d="M119.1 512.3c0 45.8 25.9 83 57.8 83s57.8-37.2 57.8-83-25.9-83-57.8-83-57.8 37.1-57.8 83z"/><path fill="#939598" d="M175.4 498.6h3.2v.8c3.7 1.9 6.4 6.9 6.4 12.9 0 5.9-2.7 11-6.4 12.9v.8h-3.2c-5.3 0-9.5-6.1-9.5-13.6 0-7.7 4.2-13.8 9.5-13.8z"/><path fill="#E9F0F7" d="M169 512.3c0 7.5 4.3 13.6 9.5 13.6 5.3 0 9.5-6.1 9.5-13.6s-4.3-13.6-9.5-13.6c-5.2-.1-9.5 6-9.5 13.6z"/></g></svg>